<?xml version="1.0" encoding="UTF-8" standalone="no"?><!DOCTYPE svg PUBLIC "-//W3C//DTD SVG 1.1//EN" "http://www.w3.org/Graphics/SVG/1.1/DTD/svg11.dtd"><svg width="100%" height="100%" viewBox="0 0 3544 4725" version="1.1" xmlns="http://www.w3.org/2000/svg" xmlns:xlink="http://www.w3.org/1999/xlink" xml:space="preserve" xmlns:serif="http://www.serif.com/" style="fill-rule:evenodd;clip-rule:evenodd;stroke-linejoin:round;stroke-miterlimit:2;"><rect id="FRONT-A-30X40" serif:id="FRONT A 30X40" x="0" y="0" width="3543.31" height="4724.41" style="fill:none;"/><g><g transform="matrix(2.46241,0,0,2.09805,233.868,2002.54)"><g transform="matrix(128.017,0,0,128.017,-78.8062,866.57)"><path d="M0.061,-0l0,-0.716l0.115,0l0.241,0.478l-0,-0.478l0.11,0l-0,0.716l-0.119,-0l-0.237,-0.467l0,0.467l-0.11,-0Z" style="fill-rule:nonzero;"/></g><g transform="matrix(128.017,0,0,128.017,-3.04639,866.57)"><path d="M0.589,-0l-0.128,-0l-0.052,-0.162l-0.234,-0l-0.049,0.162l-0.126,-0l0.229,-0.716l0.125,0l0.235,0.716Zm-0.218,-0.283l-0.081,-0.266l-0.079,0.266l0.16,-0Z" style="fill-rule:nonzero;"/></g><g transform="matrix(128.017,0,0,128.017,72.7134,866.57)"><path d="M0.059,-0.716l0.118,0l-0,0.388c-0,0.06 0.001,0.099 0.004,0.118c0.005,0.031 0.018,0.056 0.038,0.073c0.019,0.017 0.045,0.026 0.078,0.026c0.027,-0 0.049,-0.006 0.067,-0.019c0.017,-0.012 0.029,-0.029 0.035,-0.05c0.007,-0.022 0.01,-0.069 0.01,-0.14l-0,-0.396l0.118,0l-0,0.376c-0,0.096 -0.005,0.166 -0.016,0.208c-0.01,0.043 -0.033,0.078 -0.069,0.104c-0.036,0.027 -0.083,0.04 -0.142,0.04c-0.061,0 -0.109,-0.011 -0.144,-0.033c-0.034,-0.022 -0.059,-0.053 -0.074,-0.093c-0.016,-0.039 -0.023,-0.113 -0.023,-0.22l-0,-0.382Z" style="fill-rule:nonzero;"/></g><g transform="matrix(128.017,0,0,128.017,148.473,866.57)"><path d="M0.192,-0l-0,-0.595l-0.174,0l-0,-0.121l0.466,0l-0,0.121l-0.174,0l0,0.595l-0.118,-0Z" style="fill-rule:nonzero;"/></g><g transform="matrix(128.017,0,0,128.017,212.607,866.57)"><rect x="0.056" y="-0.716" width="0.118" height="0.716" style="fill-rule:nonzero;"/></g><g transform="matrix(128.017,0,0,128.017,241.798,866.57)"><path d="M0.063,-0l-0,-0.71l0.118,0l0,0.589l0.295,-0l0,0.121l-0.413,-0Z" style="fill-rule:nonzero;"/></g><g transform="matrix(128.017,0,0,128.017,305.931,866.57)"><path d="M0.059,-0.716l0.118,0l-0,0.388c-0,0.06 0.001,0.099 0.004,0.118c0.005,0.031 0.018,0.056 0.038,0.073c0.019,0.017 0.045,0.026 0.078,0.026c0.027,-0 0.049,-0.006 0.067,-0.019c0.017,-0.012 0.029,-0.029 0.035,-0.05c0.007,-0.022 0.01,-0.069 0.01,-0.14l-0,-0.396l0.118,0l-0,0.376c-0,0.096 -0.005,0.166 -0.016,0.208c-0.01,0.043 -0.033,0.078 -0.069,0.104c-0.036,0.027 -0.083,0.04 -0.142,0.04c-0.061,0 -0.109,-0.011 -0.144,-0.033c-0.034,-0.022 -0.059,-0.053 -0.074,-0.093c-0.016,-0.039 -0.023,-0.113 -0.023,-0.22l-0,-0.382Z" style="fill-rule:nonzero;"/></g><g transform="matrix(128.017,0,0,128.017,381.691,866.57)"><path d="M0.03,-0.233l0.116,-0.014c0.013,0.091 0.055,0.137 0.127,0.137c0.036,0 0.064,-0.009 0.085,-0.028c0.02,-0.019 0.031,-0.042 0.031,-0.069c-0,-0.017 -0.004,-0.031 -0.011,-0.042c-0.007,-0.011 -0.018,-0.021 -0.033,-0.028c-0.014,-0.007 -0.05,-0.02 -0.106,-0.037c-0.051,-0.015 -0.088,-0.032 -0.111,-0.05c-0.024,-0.017 -0.042,-0.041 -0.056,-0.07c-0.014,-0.029 -0.021,-0.06 -0.021,-0.094c0,-0.039 0.009,-0.074 0.027,-0.105c0.018,-0.032 0.042,-0.055 0.073,-0.071c0.032,-0.016 0.07,-0.024 0.116,-0.024c0.069,-0 0.123,0.019 0.162,0.056c0.038,0.038 0.059,0.091 0.061,0.161l-0.118,0.006c-0.006,-0.038 -0.017,-0.065 -0.034,-0.08c-0.017,-0.016 -0.042,-0.023 -0.074,-0.023c-0.032,-0 -0.056,0.006 -0.074,0.02c-0.017,0.013 -0.025,0.029 -0.025,0.049c-0,0.02 0.007,0.036 0.023,0.049c0.016,0.014 0.052,0.028 0.108,0.044c0.06,0.018 0.103,0.036 0.129,0.055c0.027,0.019 0.047,0.043 0.061,0.073c0.014,0.031 0.021,0.067 0.021,0.11c-0,0.062 -0.019,0.114 -0.058,0.157c-0.038,0.042 -0.098,0.063 -0.179,0.063c-0.144,0 -0.224,-0.082 -0.24,-0.245Z" style="fill-rule:nonzero;"/></g><g transform="matrix(128.017,0,0,128.017,480.891,866.57)"><path d="M0.436,-0.263l0.114,0.044c-0.018,0.08 -0.047,0.139 -0.089,0.176c-0.042,0.037 -0.093,0.055 -0.154,0.055c-0.076,0 -0.138,-0.029 -0.186,-0.088c-0.055,-0.068 -0.082,-0.16 -0.082,-0.276c0,-0.122 0.028,-0.217 0.083,-0.286c0.048,-0.06 0.112,-0.09 0.193,-0.09c0.066,-0 0.121,0.022 0.165,0.067c0.032,0.032 0.055,0.08 0.069,0.142l-0.117,0.035c-0.007,-0.039 -0.022,-0.069 -0.045,-0.089c-0.022,-0.021 -0.048,-0.031 -0.079,-0.031c-0.043,-0 -0.078,0.018 -0.106,0.056c-0.027,0.038 -0.041,0.1 -0.041,0.187c0,0.09 0.013,0.154 0.04,0.193c0.027,0.038 0.062,0.057 0.104,0.057c0.031,-0 0.058,-0.012 0.081,-0.037c0.023,-0.024 0.039,-0.062 0.05,-0.115Z" style="fill-rule:nonzero;"/></g><g transform="matrix(128.017,0,0,128.017,556.651,866.57)"><path d="M0.214,-0l-0,-0.301l-0.215,-0.415l0.139,0l0.138,0.283l0.136,-0.283l0.136,0l-0.216,0.416l0,0.3l-0.118,-0Z" style="fill-rule:nonzero;"/></g><g transform="matrix(128.017,0,0,128.017,626.66,866.57)"><path d="M0.06,-0.716l0.235,0c0.064,0 0.109,0.006 0.135,0.018c0.026,0.011 0.048,0.032 0.066,0.062c0.018,0.029 0.027,0.063 0.027,0.1c-0,0.035 -0.008,0.066 -0.023,0.094c-0.015,0.028 -0.035,0.048 -0.06,0.062c0.035,0.012 0.062,0.033 0.082,0.063c0.019,0.03 0.029,0.067 0.029,0.109c0,0.053 -0.012,0.097 -0.037,0.133c-0.025,0.036 -0.055,0.058 -0.089,0.066c-0.024,0.006 -0.079,0.009 -0.166,0.009l-0.199,-0l-0,-0.716Zm0.118,0.119l-0,0.166l0.078,-0c0.047,-0 0.076,-0.001 0.087,-0.003c0.02,-0.003 0.036,-0.011 0.047,-0.025c0.012,-0.014 0.017,-0.033 0.017,-0.057c0,-0.021 -0.004,-0.038 -0.014,-0.051c-0.009,-0.013 -0.02,-0.022 -0.033,-0.025c-0.014,-0.003 -0.051,-0.005 -0.114,-0.005l-0.068,0Zm-0,0.285l-0,0.191l0.11,-0c0.048,-0 0.079,-0.003 0.093,-0.008c0.013,-0.005 0.025,-0.015 0.034,-0.029c0.01,-0.015 0.014,-0.034 0.014,-0.057c0,-0.023 -0.005,-0.042 -0.015,-0.057c-0.01,-0.015 -0.023,-0.026 -0.039,-0.031c-0.017,-0.006 -0.05,-0.009 -0.101,-0.009l-0.096,-0Z" style="fill-rule:nonzero;"/></g><g transform="matrix(128.017,0,0,128.017,702.42,866.57)"><path d="M0.06,-0l0,-0.716l0.436,0l-0,0.121l-0.318,0l0,0.159l0.295,-0l0,0.121l-0.295,-0l0,0.194l0.328,-0l0,0.121l-0.446,-0Z" style="fill-rule:nonzero;"/></g><g transform="matrix(128.017,0,0,128.017,772.429,866.57)"><path d="M0.06,-0l0,-0.716l0.25,0c0.063,0 0.109,0.007 0.136,0.019c0.028,0.013 0.05,0.036 0.068,0.067c0.017,0.032 0.026,0.07 0.026,0.114c0,0.056 -0.013,0.101 -0.04,0.136c-0.027,0.034 -0.065,0.055 -0.115,0.064c0.026,0.018 0.047,0.038 0.063,0.06c0.017,0.022 0.039,0.06 0.068,0.116l0.071,0.14l-0.141,-0l-0.086,-0.156c-0.031,-0.056 -0.052,-0.091 -0.063,-0.105c-0.011,-0.015 -0.022,-0.024 -0.035,-0.03c-0.012,-0.005 -0.032,-0.008 -0.059,-0.008l-0.025,0l0,0.299l-0.118,-0Zm0.118,-0.413l0.088,-0c0.054,-0 0.088,-0.002 0.103,-0.007c0.014,-0.005 0.026,-0.014 0.035,-0.029c0.009,-0.014 0.014,-0.033 0.014,-0.057c-0,-0.023 -0.005,-0.041 -0.014,-0.055c-0.009,-0.014 -0.021,-0.023 -0.037,-0.028c-0.011,-0.004 -0.043,-0.006 -0.096,-0.006l-0.093,0l0,0.182Z" style="fill-rule:nonzero;"/></g><g transform="matrix(128.017,0,0,128.017,848.189,866.57)"><path d="M0.061,-0l0,-0.716l0.115,0l0.241,0.478l-0,-0.478l0.11,0l-0,0.716l-0.119,-0l-0.237,-0.467l0,0.467l-0.11,-0Z" style="fill-rule:nonzero;"/></g><g transform="matrix(128.017,0,0,128.017,923.949,866.57)"><path d="M0.06,-0l0,-0.716l0.436,0l-0,0.121l-0.318,0l0,0.159l0.295,-0l0,0.121l-0.295,-0l0,0.194l0.328,-0l0,0.121l-0.446,-0Z" style="fill-rule:nonzero;"/></g><g transform="matrix(128.017,0,0,128.017,993.958,866.57)"><path d="M0.06,-0l0,-0.716l0.436,0l-0,0.121l-0.318,0l0,0.159l0.295,-0l0,0.121l-0.295,-0l0,0.194l0.328,-0l0,0.121l-0.446,-0Z" style="fill-rule:nonzero;"/></g><g transform="matrix(128.017,0,0,128.017,1063.97,866.57)"><path d="M0.06,-0l0,-0.716l0.25,0c0.063,0 0.109,0.007 0.136,0.019c0.028,0.013 0.05,0.036 0.068,0.067c0.017,0.032 0.026,0.07 0.026,0.114c0,0.056 -0.013,0.101 -0.04,0.136c-0.027,0.034 -0.065,0.055 -0.115,0.064c0.026,0.018 0.047,0.038 0.063,0.06c0.017,0.022 0.039,0.06 0.068,0.116l0.071,0.14l-0.141,-0l-0.086,-0.156c-0.031,-0.056 -0.052,-0.091 -0.063,-0.105c-0.011,-0.015 -0.022,-0.024 -0.035,-0.03c-0.012,-0.005 -0.032,-0.008 -0.059,-0.008l-0.025,0l0,0.299l-0.118,-0Zm0.118,-0.413l0.088,-0c0.054,-0 0.088,-0.002 0.103,-0.007c0.014,-0.005 0.026,-0.014 0.035,-0.029c0.009,-0.014 0.014,-0.033 0.014,-0.057c-0,-0.023 -0.005,-0.041 -0.014,-0.055c-0.009,-0.014 -0.021,-0.023 -0.037,-0.028c-0.011,-0.004 -0.043,-0.006 -0.096,-0.006l-0.093,0l0,0.182Z" style="fill-rule:nonzero;"/></g><g transform="matrix(128.017,0,0,128.017,1139.73,866.57)"><rect x="0.056" y="-0.716" width="0.118" height="0.716" style="fill-rule:nonzero;"/></g><g transform="matrix(128.017,0,0,128.017,1168.92,866.57)"><path d="M0.061,-0l0,-0.716l0.115,0l0.241,0.478l-0,-0.478l0.11,0l-0,0.716l-0.119,-0l-0.237,-0.467l0,0.467l-0.11,-0Z" style="fill-rule:nonzero;"/></g><g transform="matrix(128.017,0,0,128.017,1244.68,866.57)"><path d="M0.333,-0.263l0,-0.121l0.255,0l0,0.285c-0.025,0.031 -0.062,0.057 -0.109,0.078c-0.047,0.022 -0.095,0.033 -0.142,0.033c-0.058,0 -0.109,-0.014 -0.153,-0.043c-0.045,-0.028 -0.08,-0.071 -0.106,-0.127c-0.026,-0.057 -0.038,-0.124 -0.038,-0.201c-0,-0.079 0.013,-0.146 0.039,-0.202c0.026,-0.056 0.06,-0.098 0.102,-0.126c0.042,-0.027 0.092,-0.041 0.15,-0.041c0.07,-0 0.126,0.018 0.168,0.053c0.042,0.036 0.07,0.088 0.082,0.157l-0.118,0.027c-0.008,-0.037 -0.025,-0.065 -0.048,-0.084c-0.023,-0.02 -0.051,-0.029 -0.084,-0.029c-0.05,-0 -0.091,0.019 -0.123,0.058c-0.031,0.04 -0.046,0.099 -0.046,0.18c-0,0.086 0.017,0.152 0.05,0.197c0.029,0.038 0.069,0.058 0.118,0.058c0.023,-0 0.047,-0.006 0.072,-0.017c0.025,-0.011 0.047,-0.025 0.067,-0.044l-0,-0.091l-0.136,0Z" style="fill-rule:nonzero;"/></g><g transform="matrix(128.017,0,0,128.017,235.953,1032.99)"><path d="M0.042,-0.349c-0,-0.122 0.026,-0.216 0.08,-0.281c0.054,-0.066 0.121,-0.099 0.201,-0.099c0.052,0 0.099,0.015 0.141,0.044c0.043,0.03 0.077,0.072 0.102,0.128c0.025,0.056 0.037,0.122 0.037,0.2c0,0.106 -0.024,0.192 -0.072,0.259c-0.053,0.073 -0.123,0.11 -0.209,0.11c-0.086,0 -0.156,-0.038 -0.209,-0.113c-0.048,-0.068 -0.071,-0.151 -0.071,-0.248Zm0.08,0.002c-0,0.088 0.019,0.156 0.058,0.205c0.039,0.049 0.086,0.073 0.142,0.073c0.057,0 0.105,-0.024 0.143,-0.074c0.039,-0.049 0.058,-0.121 0.058,-0.217c-0,-0.061 -0.01,-0.116 -0.03,-0.165c-0.015,-0.037 -0.038,-0.067 -0.069,-0.089c-0.031,-0.022 -0.064,-0.033 -0.101,-0.033c-0.058,-0 -0.107,0.024 -0.145,0.073c-0.037,0.049 -0.056,0.124 -0.056,0.227Z" style="fill-rule:nonzero;"/></g><g transform="matrix(128.017,0,0,128.017,317.651,1032.99)"><path d="M0.063,-0l-0,-0.716l0.221,0c0.052,0 0.091,0.005 0.115,0.014c0.034,0.012 0.061,0.035 0.081,0.069c0.021,0.033 0.031,0.074 0.031,0.123c-0,0.065 -0.017,0.117 -0.05,0.158c-0.032,0.041 -0.089,0.061 -0.17,0.061l-0.15,-0l-0,0.291l-0.078,-0Zm0.078,-0.375l0.151,-0c0.048,-0 0.083,-0.011 0.105,-0.033c0.023,-0.022 0.034,-0.054 0.034,-0.098c-0,-0.028 -0.006,-0.052 -0.017,-0.073c-0.011,-0.02 -0.024,-0.034 -0.039,-0.041c-0.016,-0.008 -0.044,-0.011 -0.084,-0.011l-0.15,-0l-0,0.256Z" style="fill-rule:nonzero;"/></g><g transform="matrix(128.017,0,0,128.017,387.661,1032.99)"><path d="M0.065,-0l-0,-0.716l0.424,0l0,0.085l-0.346,-0l-0,0.218l0.324,0l0,0.085l-0.324,-0l-0,0.244l0.36,-0l-0,0.084l-0.438,0Z" style="fill-rule:nonzero;"/></g><g transform="matrix(128.017,0,0,128.017,457.67,1032.99)"><path d="M0.061,-0l0,-0.716l0.08,0l0.308,0.563l0,-0.563l0.074,0l0,0.716l-0.079,-0l-0.308,-0.563l-0,0.563l-0.075,-0Z" style="fill-rule:nonzero;"/></g><g transform="matrix(128.017,0,0,128.017,562.621,1032.99)"><path d="M0.037,-0.23l0.073,-0.008c0.004,0.039 0.013,0.07 0.027,0.092c0.014,0.022 0.034,0.039 0.059,0.053c0.026,0.013 0.055,0.02 0.087,0.02c0.046,-0 0.082,-0.012 0.108,-0.034c0.025,-0.023 0.038,-0.052 0.038,-0.088c0,-0.021 -0.004,-0.04 -0.014,-0.055c-0.009,-0.016 -0.023,-0.029 -0.042,-0.039c-0.018,-0.01 -0.059,-0.024 -0.121,-0.043c-0.055,-0.016 -0.095,-0.033 -0.118,-0.049c-0.024,-0.017 -0.042,-0.038 -0.055,-0.064c-0.013,-0.025 -0.019,-0.054 -0.019,-0.086c-0,-0.058 0.018,-0.106 0.056,-0.142c0.037,-0.037 0.088,-0.056 0.151,-0.056c0.044,0 0.082,0.009 0.115,0.026c0.032,0.018 0.058,0.042 0.076,0.075c0.018,0.032 0.028,0.07 0.029,0.113l-0.075,0.007c-0.004,-0.046 -0.018,-0.081 -0.042,-0.103c-0.024,-0.023 -0.057,-0.034 -0.1,-0.034c-0.044,-0 -0.078,0.01 -0.101,0.03c-0.023,0.019 -0.035,0.045 -0.035,0.076c0,0.029 0.009,0.051 0.026,0.067c0.017,0.016 0.055,0.032 0.114,0.049c0.058,0.016 0.098,0.03 0.122,0.041c0.036,0.019 0.063,0.043 0.081,0.073c0.018,0.029 0.027,0.065 0.027,0.106c0,0.041 -0.009,0.078 -0.028,0.112c-0.02,0.034 -0.046,0.059 -0.079,0.077c-0.033,0.017 -0.073,0.026 -0.119,0.026c-0.073,0 -0.131,-0.022 -0.174,-0.065c-0.043,-0.044 -0.065,-0.103 -0.067,-0.177Z" style="fill-rule:nonzero;"/></g><g transform="matrix(128.017,0,0,128.017,632.63,1032.99)"><path d="M0.042,-0.349c-0,-0.122 0.026,-0.216 0.08,-0.281c0.054,-0.066 0.121,-0.099 0.201,-0.099c0.052,0 0.099,0.015 0.141,0.044c0.043,0.03 0.077,0.072 0.102,0.128c0.025,0.056 0.037,0.122 0.037,0.2c0,0.106 -0.024,0.192 -0.072,0.259c-0.053,0.073 -0.123,0.11 -0.209,0.11c-0.086,0 -0.156,-0.038 -0.209,-0.113c-0.048,-0.068 -0.071,-0.151 -0.071,-0.248Zm0.08,0.002c-0,0.088 0.019,0.156 0.058,0.205c0.039,0.049 0.086,0.073 0.142,0.073c0.057,0 0.105,-0.024 0.143,-0.074c0.039,-0.049 0.058,-0.121 0.058,-0.217c-0,-0.061 -0.01,-0.116 -0.03,-0.165c-0.015,-0.037 -0.038,-0.067 -0.069,-0.089c-0.031,-0.022 -0.064,-0.033 -0.101,-0.033c-0.058,-0 -0.107,0.024 -0.145,0.073c-0.037,0.049 -0.056,0.124 -0.056,0.227Z" style="fill-rule:nonzero;"/></g><g transform="matrix(128.017,0,0,128.017,714.328,1032.99)"><path d="M0.447,-0.716l0.077,0l0,0.414c0,0.069 -0.006,0.126 -0.02,0.17c-0.013,0.045 -0.038,0.08 -0.073,0.106c-0.036,0.025 -0.081,0.038 -0.136,0.038c-0.078,0 -0.136,-0.023 -0.174,-0.069c-0.039,-0.046 -0.058,-0.128 -0.058,-0.245l-0,-0.414l0.078,0l-0,0.413c-0,0.065 0.005,0.112 0.015,0.141c0.01,0.029 0.026,0.051 0.049,0.066c0.023,0.015 0.051,0.023 0.084,0.023c0.055,-0 0.096,-0.016 0.12,-0.047c0.025,-0.031 0.038,-0.092 0.038,-0.183l-0,-0.413Z" style="fill-rule:nonzero;"/></g><g transform="matrix(128.017,0,0,128.017,790.088,1032.99)"><path d="M0.063,-0l-0,-0.716l0.26,0c0.055,0 0.095,0.007 0.121,0.02c0.025,0.014 0.047,0.036 0.063,0.067c0.017,0.031 0.025,0.067 0.025,0.108c0,0.054 -0.014,0.098 -0.042,0.131c-0.028,0.034 -0.069,0.055 -0.123,0.064c0.022,0.013 0.039,0.026 0.05,0.04c0.023,0.027 0.043,0.058 0.061,0.091l0.103,0.195l-0.098,0l-0.078,-0.149c-0.031,-0.058 -0.054,-0.097 -0.069,-0.118c-0.015,-0.02 -0.03,-0.033 -0.045,-0.04c-0.014,-0.007 -0.035,-0.011 -0.061,-0.011l-0.089,0l-0,0.318l-0.078,-0Zm0.078,-0.4l0.167,0c0.036,0 0.064,-0.004 0.083,-0.013c0.019,-0.009 0.033,-0.023 0.045,-0.042c0.011,-0.018 0.016,-0.04 0.016,-0.066c0,-0.036 -0.01,-0.064 -0.032,-0.085c-0.021,-0.02 -0.052,-0.031 -0.094,-0.031l-0.185,0l-0,0.237Z" style="fill-rule:nonzero;"/></g><g transform="matrix(128.017,0,0,128.017,865.848,1032.99)"><path d="M0.48,-0.251l0.078,0.024c-0.017,0.08 -0.047,0.14 -0.09,0.18c-0.044,0.039 -0.096,0.059 -0.158,0.059c-0.054,0 -0.101,-0.013 -0.139,-0.04c-0.039,-0.026 -0.07,-0.069 -0.095,-0.127c-0.025,-0.059 -0.037,-0.128 -0.037,-0.208c0,-0.079 0.012,-0.146 0.037,-0.2c0.025,-0.055 0.058,-0.096 0.1,-0.124c0.042,-0.028 0.089,-0.042 0.141,-0.042c0.056,0 0.105,0.018 0.146,0.053c0.041,0.036 0.069,0.087 0.085,0.155l-0.076,0.022c-0.026,-0.099 -0.078,-0.148 -0.157,-0.148c-0.039,-0 -0.073,0.01 -0.101,0.03c-0.029,0.02 -0.052,0.051 -0.069,0.093c-0.017,0.043 -0.026,0.096 -0.026,0.161c0,0.098 0.017,0.172 0.052,0.221c0.034,0.049 0.08,0.073 0.138,0.073c0.042,0 0.078,-0.015 0.109,-0.045c0.031,-0.03 0.052,-0.076 0.062,-0.137Z" style="fill-rule:nonzero;"/></g><g transform="matrix(128.017,0,0,128.017,941.607,1032.99)"><path d="M0.065,-0l-0,-0.716l0.424,0l0,0.085l-0.346,-0l-0,0.218l0.324,0l0,0.085l-0.324,-0l-0,0.244l0.36,-0l-0,0.084l-0.438,0Z" style="fill-rule:nonzero;"/></g></g><g><g id="Shell"><path d="M1879.73,559.224c-5.25,2.625 -28.001,5.25 -49.877,6.125c-21.876,0 -49.878,2.626 -62.128,6.126c-12.251,2.625 -41.127,7 -65.628,8.75c-49.002,4.375 -108.505,20.126 -124.256,32.377c-6.125,4.375 -14.001,5.25 -18.376,2.625c-7.875,-4.375 -52.502,7 -81.379,21.876c-7.875,3.5 -31.501,11.375 -52.502,16.626c-21.001,5.25 -65.628,22.751 -99.755,39.376c-33.251,15.751 -75.253,35.002 -91.879,42.877c-16.626,7.876 -42.877,25.377 -57.753,38.502c-15.75,13.126 -44.627,37.627 -65.628,54.253c-62.128,49.877 -127.756,121.63 -143.506,155.757c-7.876,17.501 -18.376,40.252 -22.751,49.877c-5.251,10.501 -9.626,30.627 -9.626,46.377c-0.875,15.751 -3.5,28.002 -6.125,28.002c-17.501,-0 -18.376,238.011 -0.875,306.264c10.5,42.877 43.752,119.005 111.13,249.386c49.877,96.255 168.883,223.136 244.136,259.013c56.878,26.251 63.878,28.876 133.882,43.752c55.127,11.375 84.003,-7.876 101.504,-68.254c7.876,-25.376 23.626,-64.753 35.002,-86.629c26.251,-49.877 27.126,-64.753 3.5,-169.758c-19.251,-91.004 -23.626,-216.135 -8.75,-280.013c6.125,-28.876 6.125,-42.001 -1.75,-51.627c-7.876,-10.5 -7.876,-11.375 -0,-7c7,4.375 12.25,-1.75 16.625,-17.501c14.876,-70.003 79.629,-259.887 105.88,-313.265c57.753,-116.38 167.133,-242.386 252.887,-292.263c28.876,-16.626 59.503,-37.627 69.128,-45.502c9.626,-8.751 28.002,-19.251 42.002,-24.501c30.627,-12.251 30.627,-32.377 -1.75,-48.128c-25.376,-13.125 -132.131,-15.75 -151.382,-3.5Z" style="fill-rule:nonzero;"/><path d="M2223.62,637.978c-4.375,12.25 -8.75,14.876 -13.126,8.75c-8.75,-14.875 -31.501,-13.125 -70.003,7.001c-19.251,8.75 -37.627,14.875 -41.127,12.25c-4.375,-2.625 -7.875,1.75 -7.875,9.626c-0,9.625 -5.25,13.125 -15.751,9.625c-9.625,-3.5 -23.626,1.75 -35.001,12.251c-9.626,9.625 -23.627,17.5 -30.627,17.5c-27.126,0 -154.882,108.505 -154.882,131.257c-0,4.375 -5.25,13.125 -10.501,19.25c-27.126,28.002 -67.378,93.63 -73.503,117.256c-3.5,14 -14.876,35.877 -26.251,49.002c-10.501,13.126 -21.876,36.752 -25.376,52.503c-3.501,15.75 -11.376,35.001 -17.501,42.002c-11.376,14 -49.877,164.507 -66.503,262.512c-24.501,146.131 26.251,278.263 87.504,224.01c7.875,-7 47.252,-28.876 88.379,-49.877c41.127,-21.001 76.128,-41.127 77.003,-44.627c4.376,-10.501 126.881,-8.751 157.508,2.625c21.001,7 31.501,6.125 47.252,-3.5c11.376,-7.001 35.877,-17.501 55.128,-23.626c19.25,-6.126 39.376,-14.876 44.627,-19.251c6.125,-4.376 31.501,-10.501 56.877,-13.126c37.627,-4.375 61.253,-14.876 117.256,-53.377c38.501,-26.252 76.128,-53.378 83.129,-58.628c7,-6.125 33.251,-21.001 56.877,-33.252c107.63,-54.252 175.883,-79.628 245.012,-88.379c86.629,-12.25 192.509,-42.002 212.634,-60.378c24.502,-22.751 21.001,-56.002 -12.25,-125.13c-21.876,-46.378 -110.255,-137.382 -142.632,-147.882c-10.5,-2.625 -18.376,-10.501 -18.376,-16.626c0,-6.125 -14.875,-17.501 -32.376,-25.376c-18.376,-7.876 -49.002,-26.251 -67.378,-40.252c-19.251,-13.126 -52.503,-34.127 -74.379,-45.502c-21.876,-11.376 -42.002,-23.626 -42.877,-28.001c-1.75,-3.501 -7,-4.376 -11.375,-0.876c-4.375,2.626 -7.876,0.876 -7.876,-4.375c0,-5.25 -6.125,-6.125 -14.875,-3.5c-9.626,3.5 -12.251,2.625 -7.876,-5.25c7.001,-10.501 -47.252,-39.377 -91.004,-48.127c-12.25,-2.625 -34.126,-7.876 -49.877,-13.126c-14.876,-4.375 -29.752,-6.125 -32.377,-2.625c-2.625,2.625 -5.25,-3.5 -5.25,-13.126c0,-14 -7.875,-19.251 -31.501,-24.501c-18.376,-2.625 -35.877,-1.75 -41.127,3.5c-5.251,5.251 -15.751,5.251 -29.752,0c-17.5,-6.125 -21.876,-4.375 -28.001,11.376Z" style="fill-rule:nonzero;"/><path d="M799.051,1079c-15.751,7.876 -30.626,21.001 -33.252,30.627c-2.625,8.75 -17.5,28.001 -31.501,43.752c-14.876,15.75 -37.627,52.502 -52.503,81.379c-14,29.751 -29.751,59.502 -34.126,66.503c-35.877,55.127 -84.004,184.633 -101.505,266.887c-1.75,9.625 -8.75,36.752 -15.751,61.253c-32.376,109.38 -50.752,199.509 -57.752,287.888c-3.5,52.503 -6.126,99.755 -4.375,105.005c1.75,5.25 5.25,35.877 7.875,67.378c7,95.38 28.001,145.257 84.004,200.385c59.503,57.752 119.88,105.004 135.631,105.004c6.125,0 15.751,6.126 21.876,13.126c22.751,27.126 149.632,56.878 289.639,67.378c238.011,18.376 319.389,11.376 424.394,-38.502c35.877,-16.625 44.627,-26.251 55.128,-56.877c11.375,-31.502 11.375,-44.627 0.875,-95.38c-6.125,-32.376 -11.376,-89.254 -10.501,-125.131c0,-36.751 -4.375,-77.878 -11.375,-93.629c-10.501,-24.501 -17.501,-29.751 -54.253,-35.001c-22.751,-4.376 -43.752,-7.876 -46.377,-7.876c-2.625,-0.875 -26.251,-6.125 -52.502,-11.375c-112.88,-25.377 -274.763,-163.633 -356.142,-305.39c-25.376,-43.752 -83.129,-161.882 -107.63,-217.01c-17.501,-41.127 -33.251,-115.505 -28.876,-142.631c2.625,-14.876 0.875,-28.002 -3.5,-28.002c-4.375,0 -0.875,-34.126 7,-75.253c20.126,-98.005 24.501,-178.508 10.501,-178.508c-4.376,-0 -19.251,7 -35.002,14Z" style="fill-rule:nonzero;"/><path d="M2183.37,1558.52c-49.877,13.125 -68.253,28.876 -98.004,84.003c-22.751,41.127 -26.252,58.628 -28.002,119.881l-2.625,71.753l28.002,17.501c23.626,14.001 45.502,16.626 126.005,17.501c111.131,0.875 132.131,-6.125 162.758,-47.252c12.25,-16.626 24.501,-30.627 28.001,-30.627c3.5,0 32.377,-17.5 64.753,-39.376c31.502,-21.876 59.503,-39.377 62.128,-39.377c7,-0 67.378,-28.002 78.754,-37.627c13.125,-9.625 -8.751,-28.876 -64.753,-54.253c-21.001,-9.625 -37.627,-20.125 -37.627,-23.626c0,-2.625 -24.501,-14 -54.253,-23.626c-64.753,-21.001 -211.759,-28.876 -265.137,-14.875Z" style="fill-rule:nonzero;"/><path d="M1938.35,1628.52c-78.754,21.001 -132.131,54.252 -207.385,127.756c-77.003,75.253 -79.629,124.256 -10.5,200.384c63.003,69.128 92.754,70.003 169.758,0.875c16.625,-14.876 42.002,-33.251 55.127,-40.252c32.377,-17.501 41.127,-43.752 41.127,-128.631c0,-50.752 5.25,-85.754 17.501,-118.13c18.376,-49.003 21.001,-63.878 11.375,-62.128c-4.375,0.875 -38.501,9.625 -77.003,20.126Z" style="fill-rule:nonzero;"/><path d="M2682.14,1747.53c-19.251,3.501 -50.752,9.626 -70.003,13.126c-42.877,7.875 -124.256,56.003 -131.256,76.128c-3.5,8.751 -8.75,15.751 -14.001,15.751c-11.375,0 -51.627,66.503 -51.627,86.629c-0,9.626 7,22.751 15.751,28.877c18.376,14 54.252,69.128 77.003,118.13c8.751,20.126 20.126,37.627 24.501,37.627c4.376,-0 24.502,-7.876 43.752,-16.626c55.128,-27.126 208.26,-41.127 296.639,-28.001c84.004,12.25 119.881,5.25 134.756,-27.127c29.752,-59.502 -62.127,-195.134 -183.758,-273.012c-52.503,-33.252 -90.129,-42.002 -141.757,-31.502Z" style="fill-rule:nonzero;"/><path d="M2095.86,1919.91c-116.38,25.377 -175.008,77.004 -192.509,168.883c-12.25,68.253 38.502,175.008 83.129,175.008c7.875,0 17.501,2.625 21.001,6.126c6.125,6.125 14.876,7.875 64.753,15.75c23.626,2.625 35.002,-1.75 60.378,-24.501c28.001,-26.251 30.626,-33.251 30.626,-73.503c-0.875,-33.252 -6.125,-53.378 -20.126,-72.629c-24.501,-32.376 -51.627,-35.001 -51.627,-5.25c-0,30.627 -40.252,60.378 -73.503,54.253c-52.503,-10.501 -68.254,-42.877 -49.003,-98.88c15.751,-43.752 77.004,-77.879 131.256,-73.503c105.005,8.75 179.384,71.753 176.759,149.632c-1.751,51.627 -20.126,117.255 -38.502,137.381c-30.627,33.252 -30.627,87.504 1.75,156.632c25.376,53.378 68.253,108.505 86.629,108.505c3.5,0 17.501,-15.75 32.376,-35.876c14.001,-19.251 30.627,-41.127 36.752,-48.128c13.126,-14 54.253,-113.755 54.253,-131.256c-0,-6.125 -7.001,-13.125 -14.876,-14.875c-14.001,-3.501 -14.001,-4.376 -0.875,-5.251c12.25,-0.875 14,-7.875 11.375,-43.752c-14,-161.882 -79.628,-269.512 -196.009,-322.89c-46.377,-21.001 -113.755,-30.626 -154.007,-21.876Z" style="fill-rule:nonzero;"/><path d="M1621.59,2025.79c-24.501,19.251 -40.252,81.379 -33.251,127.756c12.25,73.504 47.252,167.133 74.378,196.009c14.001,15.751 26.251,31.502 26.251,34.127c0,13.125 62.128,63.878 78.754,63.878c41.127,-0 126.881,-69.128 118.13,-94.505c-1.75,-5.25 0,-10.5 4.376,-10.5c14,-0 9.625,-13.126 -17.501,-53.378c-14.001,-21 -26.251,-49.002 -26.251,-61.252c-0,-12.251 -2.626,-25.377 -6.126,-28.877c-3.5,-3.5 -5.25,-21.001 -3.5,-40.252c2.625,-39.376 -11.375,-70.003 -31.501,-70.003c-7.001,0 -26.252,-7 -41.127,-16.626c-14.876,-8.75 -42.002,-21.001 -59.503,-26.251c-17.501,-6.125 -36.752,-16.626 -42.002,-23.626c-14.001,-15.751 -17.501,-14.876 -41.127,3.5Z" style="fill-rule:nonzero;"/><path d="M2669.01,2168.42c-52.503,18.376 -93.63,53.377 -101.505,86.629c-2.625,12.25 -5.25,44.627 -4.375,72.628c-0,36.752 -5.25,61.253 -21.001,90.129c-24.501,45.503 -18.376,73.504 19.251,90.13c47.252,21.876 108.505,76.128 143.506,127.756c11.376,16.625 23.626,30.626 28.002,30.626c3.5,-0 6.125,4.375 6.125,9.625c-0,5.251 15.751,42.002 35.877,81.379c48.127,95.38 62.128,133.006 68.253,184.634c4.375,35.876 8.75,44.627 23.626,46.377c35.002,5.25 116.38,-111.13 129.506,-184.634c3.5,-17.5 9.625,-32.376 14.001,-32.376c4.375,-0 10.5,-22.751 13.125,-50.752c3.5,-27.127 11.376,-57.753 16.626,-67.379c13.126,-21.876 32.376,-105.88 31.501,-140.881c0,-14.001 0.875,-57.753 2.626,-98.005c0.875,-40.252 -0.876,-75.253 -4.376,-77.003c-2.625,-1.75 -3.5,-17.501 -0.875,-33.252c3.5,-24.501 1.75,-30.626 -13.125,-35.001c-10.501,-3.501 -16.626,-10.501 -14.001,-16.626c7.875,-21.001 -58.628,-60.378 -134.756,-81.379c-91.004,-25.376 -169.758,-26.251 -238.011,-2.625Z" style="fill-rule:nonzero;"/><path d="M1959.36,2377.56c-69.128,62.127 -112.005,107.63 -122.506,133.006c-9.625,23.626 -8.75,30.626 7,58.627c24.502,42.877 76.129,76.129 133.882,86.63c49.002,9.625 176.758,7.875 202.134,-2.626c25.376,-9.625 47.252,-83.128 25.376,-83.128c-4.375,-0 -8.75,-7.876 -8.75,-16.626c-0,-26.251 -37.627,-100.63 -77.879,-153.132c-35.876,-49.003 -36.752,-49.003 -83.129,-49.003c-38.501,0 -50.752,4.376 -76.128,26.252Z" style="fill-rule:nonzero;"/><path d="M1457.08,2493.06c-75.253,39.377 -207.384,63.003 -351.766,61.253c-54.252,-0.875 -98.879,2.625 -98.879,7c-0,7.875 -16.626,7 -32.377,-2.625c-6.125,-3.5 -11.375,-0 -14.001,8.75c-3.5,12.251 -4.375,13.126 -5.25,1.75c-1.75,-26.251 -84.879,-54.252 -171.508,-56.877c-58.628,-1.75 -75.253,-4.375 -113.755,-21.001c-9.626,-4.375 -28.876,-7 -43.752,-6.125c-24.501,1.75 -26.251,3.5 -23.626,32.376c0.875,16.626 6.125,34.127 10.5,38.502c3.5,3.5 5.251,12.25 3.5,18.376c-2.625,6.125 -0.875,14 4.376,17.501c5.25,2.625 9.625,13.125 9.625,22.751c0,11.375 3.5,15.75 10.501,11.375c6.125,-4.375 7,-2.625 2.625,4.375c-7.001,11.376 29.751,87.504 56.877,119.006c8.751,9.625 18.376,26.251 21.001,36.752c7.001,22.751 143.507,160.132 159.258,160.132c5.25,-0 13.125,6.125 15.75,13.126c2.626,7.875 20.126,20.126 37.627,28.001c18.376,7 35.877,17.501 38.502,21.876c3.5,4.375 33.252,17.501 66.503,28.876l60.378,19.251l151.382,-14.876c140.881,-14.875 153.132,-17.5 193.384,-43.752c24.501,-15.75 43.752,-31.501 43.752,-35.876c-0,-4.375 4.375,-7.876 8.75,-7.876c10.501,0 154.882,-93.629 190.759,-124.255c46.377,-38.502 79.629,-119.881 60.378,-147.882c-12.251,-17.501 -75.254,-69.128 -84.004,-69.128c-2.625,-0 -24.501,-24.502 -49.002,-53.378c-37.627,-46.377 -93.63,-87.504 -115.506,-86.629c-3.5,0.875 -22.751,8.75 -42.002,19.251Z" style="fill-rule:nonzero;"/><path d="M2434.5,2592.82c-21.876,21.001 -42.002,38.501 -44.627,38.501c-3.5,0 -20.126,7.876 -38.502,17.501c-17.501,9.626 -35.002,16.626 -38.502,16.626c-21.001,-3.5 -32.376,5.25 -60.378,49.877c-29.751,46.377 -31.501,52.503 -25.376,97.13c3.5,26.251 7.001,60.378 8.751,76.128c1.75,14.876 5.25,48.128 8.75,73.504c2.625,25.376 0.875,68.253 -5.25,96.254c-5.25,27.126 -10.501,57.753 -11.376,67.378c-3.5,30.627 -23.626,95.38 -35.001,109.38c-6.126,7.001 -14.876,23.626 -21.001,36.752c-9.626,23.626 -23.626,41.127 -61.253,81.379c-14.001,14.001 -19.251,28.876 -17.501,45.502c2.625,22.751 5.25,24.501 48.127,27.126c28.002,1.75 72.629,-4.375 113.756,-15.75c82.253,-22.752 212.634,-77.879 212.634,-89.255c0,-4.375 2.626,-6.125 7.001,-3.5c17.501,10.501 211.76,-147.882 211.76,-173.258c-0,-6.125 7.875,-18.376 16.625,-26.251c28.002,-25.376 44.627,-87.504 40.252,-152.257c-1.75,-31.502 -7,-59.503 -12.25,-61.253c-5.251,-1.75 -9.626,-10.5 -9.626,-20.126c0,-8.75 -4.375,-16.626 -9.625,-16.626c-5.251,0 -7.876,-5.25 -5.251,-12.25c2.626,-7.001 -0.875,-14.876 -7,-17.501c-7,-2.625 -10.5,-10.501 -7.875,-18.376c3.5,-8.75 -0,-13.126 -9.626,-13.126c-10.5,0 -13.125,-4.375 -8.75,-17.5c2.625,-9.626 2.625,-17.501 -1.75,-17.501c-3.5,-0 -13.126,-13.126 -19.251,-28.001c-19.251,-42.877 -63.878,-112.006 -72.628,-112.006c-3.501,0 -14.001,-13.125 -21.876,-29.751c-10.501,-22.751 -21.876,-32.377 -48.128,-38.502c-33.251,-8.75 -35.876,-7.875 -75.253,29.752Z" style="fill-rule:nonzero;"/><path d="M1889.35,2744.2c-28.877,9.625 -77.879,44.627 -77.879,56.877c-0.875,14.876 -27.126,42.002 -73.503,75.254c-23.627,16.626 -62.128,49.002 -85.754,70.878c-66.504,63.878 -244.137,148.757 -338.641,161.883c-21.876,2.625 -62.128,11.375 -88.379,19.25c-26.252,7.876 -53.378,13.126 -58.628,12.251c-20.126,-4.375 -46.377,16.626 -46.377,35.877c0.875,30.626 43.752,70.003 123.381,111.13c40.251,21.001 79.628,41.127 86.629,44.627c24.501,13.126 147.881,52.502 189.883,60.378c236.261,42.877 318.515,46.377 374.518,16.625c19.251,-10.5 47.252,-31.501 62.128,-47.252c15.75,-15.75 31.501,-29.751 35.001,-31.501c11.376,-5.25 68.253,-77.004 90.129,-112.88c68.254,-117.256 93.63,-210.01 85.754,-322.89c-2.625,-44.627 -7.875,-57.753 -33.251,-86.629c-16.626,-19.251 -42.002,-40.252 -57.753,-48.128c-32.376,-16.625 -154.007,-26.251 -187.258,-15.75Z" style="fill-rule:nonzero;"/></g></g></g></svg>